<svg width="228" height="106" viewBox="0 0 228 106" fill="none" xmlns="http://www.w3.org/2000/svg">
<path d="M60.286 54.5591H59.5058C58.1188 54.5591 56.7752 54.7108 55.529 55.0033C54.2829 55.2959 53.1668 55.751 52.2349 56.3687C51.2922 56.9863 50.5228 57.7665 49.9702 58.6984C49.4067 59.6303 49.125 60.768 49.125 62.0575C49.125 63.6612 49.4718 64.9832 50.1653 66.0018C50.8479 66.9987 51.704 67.8006 52.7009 68.3749C53.6978 68.9383 54.7597 69.3393 55.8866 69.5451C57.0027 69.751 58.0321 69.8594 58.9207 69.8594C59.2349 69.8594 59.5492 69.8594 59.8526 69.8269C60.156 69.8052 60.481 69.7727 60.8386 69.7293L61.0012 69.7077V69.5451C61.0012 69.3176 61.0228 69.0033 61.0662 68.6349C61.1095 68.2448 61.1529 67.9198 61.1854 67.6489L61.2179 67.4105L60.9795 67.443C60.6653 67.4863 60.351 67.508 60.0476 67.5188C59.7334 67.5297 59.4516 67.5405 59.2241 67.5405C58.3789 67.5405 57.512 67.443 56.656 67.2479C55.8108 67.0529 55.0414 66.7386 54.3696 66.3052C53.6978 65.8718 53.156 65.3083 52.7334 64.6256C52.3216 63.943 52.1049 63.0761 52.1049 62.0575C52.1049 61.1365 52.2999 60.3454 52.6683 59.7061C53.0476 59.056 53.5677 58.525 54.2287 58.1241C54.8897 57.7123 55.6916 57.4089 56.6018 57.2139C57.5228 57.0188 58.5197 56.9213 59.5817 56.9213C59.8634 56.9213 60.1126 56.9213 60.3077 56.943C60.4919 56.943 60.6869 56.9755 60.8928 57.0188L61.1095 57.0622V56.8454C61.1095 56.6179 61.1204 56.3037 61.1529 55.9136C61.1854 55.5018 61.2179 55.1442 61.2612 54.8516L61.2829 54.6783L61.1095 54.6566C60.8061 54.6133 60.5352 54.5916 60.3077 54.5916L60.286 54.5591Z" fill="#008245"/>
<path d="M76.4863 54.4397C75.3919 54.4397 74.3516 54.6239 73.4089 54.9923C72.4553 55.3608 71.621 55.8917 70.9275 56.5527C70.2231 57.2245 69.6705 58.0372 69.2804 58.9691C68.8903 59.901 68.6953 60.9521 68.6953 62.0682C68.6953 63.5094 68.9228 64.7555 69.3779 65.7632C69.833 66.7601 70.4399 67.5945 71.1767 68.2121C71.9135 68.8406 72.7696 69.2957 73.7123 69.5775C74.6442 69.8592 75.6194 70.0001 76.6055 70.0001C77.6782 70.0001 78.6751 69.8917 79.5745 69.6642C80.4739 69.4474 81.2758 69.1549 81.9476 68.7973L82.0776 68.7323L82.0451 68.5914C81.9801 68.353 81.9259 68.0604 81.8609 67.7354C81.7959 67.3886 81.7417 67.0852 81.7092 66.836L81.6659 66.5868L81.4491 66.706C80.2572 67.3561 78.8052 67.6812 77.1148 67.6812C75.4244 67.6812 74.1566 67.2803 73.1488 66.5109C72.1953 65.7632 71.6535 64.5496 71.5451 62.8809H72.0978C72.943 62.8809 73.8748 62.8809 74.8826 62.87C75.9662 62.8592 76.9306 62.8375 77.8408 62.805C78.8052 62.7725 79.7154 62.74 80.5606 62.6967C81.3841 62.6533 82.0993 62.61 82.6844 62.545H82.7278C82.8903 62.4691 83.0095 62.2849 83.0854 61.9815C83.1504 61.7214 83.1829 61.4397 83.1829 61.1363C83.1829 59.0341 82.6086 57.3762 81.4708 56.206C80.333 55.0357 78.6535 54.4505 76.4755 54.4505L76.4863 54.4397ZM80.5281 60.5837C80.138 60.6162 79.6721 60.6378 79.0978 60.6595H79.0544C78.4368 60.6812 77.7541 60.7029 77.0173 60.7354C76.2804 60.7679 75.4786 60.7895 74.5792 60.8004C73.7123 60.8112 72.8129 60.8112 71.9027 60.8112H71.5993C71.7293 59.6193 72.2061 58.6332 73.0188 57.853C73.8748 57.0403 75.056 56.6286 76.5296 56.6286C77.7758 56.6286 78.7618 56.997 79.4662 57.7338C80.138 58.4382 80.4847 59.3917 80.5173 60.5728L80.5281 60.5837Z" fill="#008245"/>
<path d="M105.711 57.4844C105.353 56.4983 104.833 55.7398 104.139 55.2088C103.446 54.6779 102.503 54.407 101.322 54.407C100.477 54.407 99.6746 54.5587 98.9703 54.8621C98.266 55.1546 97.6158 55.5447 97.0307 56.0107C96.4564 56.4766 95.9362 56.9967 95.492 57.5602C95.2102 57.9178 94.9718 58.2754 94.7551 58.6221V58.4704C94.7551 58.037 94.7443 57.4735 94.7226 56.7909C94.7009 56.1082 94.6684 55.393 94.6251 54.667V54.4611L94.4192 54.4936C94.0725 54.5587 93.6499 54.602 93.1622 54.6454C92.653 54.6887 92.2737 54.7104 91.992 54.7104H91.7969L91.8186 54.9054C91.9161 55.8373 92.0028 56.9642 92.0461 58.2537C92.1003 59.5323 92.122 60.8001 92.122 62.0354V63.2816C92.122 63.8992 92.122 64.5277 92.1003 65.1454C92.1003 65.763 92.0786 66.359 92.0678 66.9224C92.0678 67.4859 92.0461 67.9952 92.0353 68.4611C92.0353 68.9271 92.0136 69.3063 91.992 69.6206V69.8265L92.187 69.8156C92.7505 69.7723 93.2598 69.7398 93.7257 69.7289C94.1917 69.7073 94.5384 69.6964 94.7551 69.6964H94.9502V69.5014C94.9177 69.1872 94.896 68.8512 94.8852 68.4828L94.8201 66.4565C94.8201 66.1639 94.8093 65.9472 94.8093 65.7847V65.2537C94.8093 64.1701 94.9177 63.1841 95.1127 62.328C95.3186 61.472 95.687 60.6051 96.2071 59.7491C96.7923 58.7847 97.4858 58.0478 98.266 57.5494C99.0461 57.0618 99.848 56.8125 100.661 56.8125C101.376 56.8125 101.94 57.0076 102.341 57.3977C102.752 57.7986 103.067 58.3837 103.272 59.1314C103.489 59.9008 103.608 60.8543 103.652 61.9704C103.695 63.0974 103.717 64.376 103.717 65.7738V66.0881C103.717 66.294 103.717 66.554 103.695 66.8574L103.663 67.811C103.663 68.1252 103.641 68.4503 103.619 68.7645C103.598 69.0896 103.576 69.3714 103.554 69.6206L103.533 69.8481L103.76 69.8048C103.998 69.7615 104.378 69.7289 104.898 69.7181C105.429 69.6964 105.895 69.6856 106.306 69.6856H106.491V65.7738C106.491 64.0293 106.447 62.4364 106.35 61.0385C106.252 59.6407 106.036 58.4379 105.689 57.4735L105.711 57.4844Z" fill="#008245"/>
<path d="M123.232 54.7647C122.885 54.7647 122.517 54.7863 122.116 54.7972C121.715 54.808 121.303 54.808 120.892 54.808H119.201V54.678C119.201 54.3854 119.201 54.0387 119.212 53.6269L119.245 52.3483C119.245 51.9148 119.266 51.4922 119.288 51.0805C119.31 50.6687 119.342 50.3111 119.375 50.0077L119.407 49.7476L119.147 49.8126C118.735 49.9102 118.291 49.9752 117.814 50.0077C117.327 50.0402 116.926 50.051 116.644 50.051H116.449V50.2461C116.481 50.5495 116.492 50.9071 116.503 51.2972C116.503 51.6873 116.525 52.0882 116.525 52.4891V54.8188C115.94 54.8188 115.463 54.8188 115.073 54.808C114.65 54.808 114.26 54.7755 113.892 54.7322L113.697 54.7105V54.9055C113.697 55.1873 113.686 55.5123 113.653 55.8699C113.621 56.2167 113.588 56.5201 113.545 56.7693L113.502 56.9969L113.74 56.9752C114.108 56.9318 114.52 56.9102 114.964 56.8993C115.376 56.8993 115.875 56.8885 116.46 56.8885C116.46 57.2569 116.46 57.6904 116.449 58.1671L116.416 59.8467C116.416 60.4102 116.406 60.9411 116.406 61.4504V63.0866C116.406 64.4086 116.481 65.5031 116.622 66.3483C116.774 67.226 117.045 67.9303 117.413 68.4396C117.803 68.9705 118.313 69.339 118.93 69.5449C119.537 69.7507 120.306 69.8483 121.206 69.8483C121.596 69.8483 121.997 69.8374 122.398 69.8049C122.81 69.7724 123.232 69.7074 123.666 69.599L123.828 69.5557L123.806 69.3931C123.763 69.1114 123.741 68.8188 123.731 68.4829C123.731 68.1578 123.72 67.887 123.72 67.6811V67.4644L123.503 67.5077C123.221 67.5727 122.929 67.6052 122.647 67.6269C121.726 67.6919 121.043 67.6594 120.523 67.4644C120.187 67.3452 119.906 67.1284 119.689 66.8142C119.461 66.4891 119.299 66.0448 119.19 65.5031C119.082 64.9396 119.017 64.1919 119.017 63.3034V61.5154C119.017 61.0061 119.017 60.4752 119.028 59.9226C119.039 59.3699 119.049 58.8065 119.071 58.2322C119.093 57.7337 119.104 57.2894 119.125 56.8993H120.794C121.184 56.8993 121.574 56.8993 121.954 56.9102H122.084C122.419 56.921 122.734 56.9318 123.026 56.9427C123.362 56.9427 123.611 56.9644 123.785 56.986L123.98 57.0077V56.8126C123.98 56.5418 123.991 56.2275 124.023 55.8591C124.056 55.5232 124.099 55.2089 124.153 54.9489L124.207 54.7105L123.958 54.7322C123.774 54.7538 123.514 54.7647 123.178 54.7755L123.232 54.7647Z" fill="#008245"/>
<path d="M141.642 55.6531C141.577 55.2197 141.556 54.8621 141.556 54.5912V54.407H141.372C140.624 54.407 139.887 54.5587 139.183 54.8621C138.489 55.1546 137.828 55.5556 137.232 56.0324C136.636 56.52 136.084 57.0834 135.596 57.7119C135.271 58.1345 134.989 58.568 134.74 59.0122C134.74 58.6763 134.74 58.3079 134.729 57.9286C134.718 57.5494 134.707 57.1593 134.697 56.78C134.697 56.3899 134.675 56.0215 134.664 55.6639C134.664 55.2955 134.642 54.9704 134.621 54.6779V54.4828L134.415 54.5153C134.068 54.5803 133.646 54.6237 133.158 54.667C132.659 54.7104 132.269 54.732 131.988 54.732H131.793L131.814 54.9271C131.912 55.859 131.998 56.9859 132.042 58.2754C132.096 59.619 132.118 60.8543 132.118 62.068V63.3141C132.118 64.5494 132.118 65.7522 132.085 66.9008C132.063 68.0277 132.031 68.9488 131.988 69.6423V69.8481L132.183 69.8373C132.735 69.794 133.245 69.7614 133.689 69.7506C134.133 69.7289 134.469 69.7181 134.697 69.7181H134.892V69.5231C134.859 69.2088 134.837 68.8729 134.827 68.5045L134.794 67.3342C134.794 67.0308 134.772 66.7491 134.762 66.4782C134.762 66.1856 134.751 65.9689 134.751 65.7955V64.6469C134.751 63.7584 134.924 62.8481 135.249 61.9271C135.585 61.006 136.04 60.1608 136.604 59.424C137.167 58.6871 137.839 58.0803 138.608 57.6144C139.356 57.1593 140.169 56.9317 141.003 56.9317H141.296C141.382 56.9317 141.491 56.9317 141.632 56.9642L141.881 56.9967L141.827 56.7475C141.762 56.4441 141.697 56.0865 141.642 55.6748V55.6531Z" fill="#008245"/>
<path d="M158.622 64.4952C158.644 63.9426 158.655 63.3574 158.666 62.7181C158.677 62.0896 158.687 61.4611 158.709 60.8435C158.731 60.215 158.742 59.6732 158.742 59.1856C158.742 57.5602 158.254 56.3466 157.29 55.5664C156.336 54.7971 154.916 54.407 153.064 54.407C152.186 54.407 151.254 54.4828 150.29 54.6237C149.314 54.7754 148.317 55.0246 147.353 55.3822L147.201 55.4364L147.245 55.5989C147.31 55.8048 147.375 56.0974 147.44 56.4658C147.516 56.845 147.57 57.1918 147.613 57.4952L147.646 57.7228L147.851 57.6469C148.664 57.3435 149.52 57.1051 150.409 56.9209C151.286 56.7475 152.132 56.6608 152.923 56.6608C153.562 56.6608 154.104 56.7258 154.516 56.8559C154.916 56.9859 155.242 57.1593 155.469 57.3868C155.697 57.6144 155.859 57.8961 155.957 58.2429C156.054 58.6005 156.108 59.0014 156.108 59.4348V60.1608C152.912 60.1717 150.43 60.5184 148.74 61.2011C146.963 61.9163 146.064 63.1949 146.064 65.0045C146.064 66.0339 146.313 66.8791 146.8 67.5076C147.277 68.1252 147.906 68.6237 148.675 68.9704C149.423 69.3172 150.257 69.5556 151.156 69.6748C152.045 69.794 152.923 69.8481 153.779 69.8481C154.407 69.8481 155.166 69.8265 156.108 69.7831C156.997 69.7398 157.831 69.6748 158.601 69.5664L158.785 69.5447L158.763 69.3714C158.742 69.2305 158.731 69.0354 158.72 68.7971L158.655 67.1608C158.655 66.8791 158.644 66.6299 158.644 66.4023V65.7847C158.644 65.4704 158.644 65.0478 158.677 64.4952H158.622ZM150.875 62.6748C151.557 62.4797 152.381 62.3605 153.302 62.3063C154.19 62.263 155.122 62.2305 156.076 62.2305L155.957 67.5509C155.707 67.5834 155.404 67.6051 155.057 67.6268C154.635 67.6484 154.277 67.6593 153.995 67.6593C153.399 67.6593 152.782 67.6268 152.142 67.5726C151.514 67.5076 150.94 67.3884 150.42 67.1933C149.91 67.0091 149.488 66.7274 149.173 66.3698C148.859 66.0231 148.707 65.5463 148.707 64.9503C148.707 64.3543 148.892 63.8667 149.271 63.5091C149.661 63.1515 150.203 62.8698 150.875 62.6748Z" fill="#008245"/>
<path d="M171.116 47.2662C170.715 47.3638 170.238 47.4505 169.707 47.5155C169.176 47.5805 168.765 47.613 168.483 47.613H168.299V47.7972C168.342 49.2384 168.375 50.8854 168.396 52.7059C168.418 54.6888 168.429 56.531 168.429 58.3297V63.3034C168.429 64.4845 168.429 65.6873 168.396 66.8901C168.375 68.017 168.342 68.9381 168.299 69.6316V69.8375L168.494 69.8266C169.057 69.7833 169.567 69.7508 170.033 69.7399C170.498 69.7183 170.845 69.7074 171.062 69.7074H171.257V69.5124C171.203 68.8839 171.17 68.0062 171.149 66.8792C171.127 65.7632 171.116 64.5604 171.116 63.3034V58.3297C171.116 57.3978 171.116 56.4009 171.127 55.3282C171.127 54.2554 171.149 53.226 171.17 52.2399C171.192 51.243 171.214 50.322 171.246 49.4768L171.268 48.9783C171.289 48.3607 171.311 47.8514 171.322 47.4613V47.2229L171.094 47.2771L171.116 47.2662Z" fill="#008245"/>
<path d="M36.1115 38.2833C35.1904 37.3189 34.2694 36.3328 33.3375 35.3251C32.4056 34.3173 31.517 33.353 30.6718 32.4211L28.3096 29.8204C27.7461 29.2028 27.2585 28.6502 26.8359 28.1625C27.5836 27.9892 28.3096 27.7399 28.9923 27.4474C29.87 27.0573 30.6502 26.548 31.3111 25.9304C31.983 25.3019 32.5139 24.5434 32.8824 23.6873C33.2616 22.8313 33.4458 21.8235 33.4458 20.7074C33.4458 19.0929 33.0991 17.7601 32.4272 16.7523C31.7663 15.7663 30.9211 14.9969 29.9133 14.4551C28.9272 13.9242 27.8437 13.5774 26.6842 13.404C24.5387 13.0898 22.7291 13.1331 21.1796 13.1873C20.4536 13.209 19.5542 13.2523 18.4706 13.3065C18.1238 13.3282 17.7554 13.3499 17.3653 13.3499H16L16.0217 14C16.0433 14.5743 16.0759 15.2895 16.1084 16.1455C16.1517 17.1533 16.1734 18.2369 16.1842 19.4071L16.2276 23.0263C16.2384 24.2616 16.2492 25.4319 16.2492 26.5263V27.4799C16.2492 28.6285 16.2492 29.7988 16.2276 31.0016C16.2167 32.2043 16.195 33.3529 16.1734 34.4582C16.1517 35.5635 16.1192 36.5929 16.0975 37.5139C16.0759 38.435 16.0433 39.2043 16.0217 39.7895L16 40.2121L16.4226 40.1579C16.6176 40.1362 16.8669 40.1146 17.1594 40.1037C17.7663 40.0821 18.5248 40.0712 19.0774 40.1037C19.3483 40.1146 19.5759 40.1362 19.7709 40.1579L20.1935 40.2121L20.1718 39.7895C20.1502 39.2043 20.1176 38.4458 20.096 37.5139C20.0743 36.5821 20.0418 35.5743 20.0201 34.469C19.9985 33.3746 19.9768 32.226 19.9659 31.0124C19.9551 29.7988 19.9443 28.6177 19.9443 27.4799V16.5898C20.3344 16.5573 20.7461 16.5248 21.1904 16.5031C21.7539 16.4814 22.1981 16.4706 22.4907 16.4706C23.4876 16.4706 24.452 16.5248 25.3406 16.644C26.1966 16.7523 26.9551 16.969 27.5728 17.2941C28.1687 17.6084 28.6563 18.0526 29.0031 18.6378C29.3498 19.2121 29.5232 19.9923 29.5232 20.9458C29.5232 21.8019 29.3824 22.5279 29.1006 23.1022C28.8189 23.6765 28.4288 24.1533 27.9195 24.5217C27.4102 24.9009 26.7817 25.1827 26.0449 25.3669C25.2864 25.5511 24.4412 25.6703 23.5201 25.7245H23.2926L22.2848 28.2709L22.4474 28.4334C23.0867 29.1053 23.8452 29.918 24.6796 30.8499C25.5356 31.8034 26.4241 32.8328 27.3669 33.9273C28.2988 35.0217 29.2523 36.1595 30.2276 37.3297C31.2028 38.5 32.1347 39.6269 33.0232 40.6997L33.2508 40.9814L33.5217 40.7539C33.8468 40.4721 34.2694 40.1471 34.7678 39.7678C35.2663 39.3886 35.6997 39.0851 36.0464 38.8684L36.404 38.63L36.1115 38.3158V38.2833Z" fill="#008245"/>
<path d="M80.0841 30.0155C79.8132 29.322 79.4015 28.6502 78.8705 28.0326C78.3395 27.4258 77.6677 26.8298 76.8767 26.2663C76.0965 25.7137 75.1646 25.1069 74.1135 24.4676C73.3984 24.045 72.7807 23.6549 72.2714 23.2864C71.7838 22.9397 71.3937 22.5929 71.0903 22.2462C70.7977 21.9211 70.581 21.5852 70.451 21.2385C70.321 20.9025 70.2451 20.4908 70.2451 20.0357C70.2451 19.4505 70.386 18.9304 70.6677 18.5078C70.9603 18.0744 71.3612 17.7059 71.8705 17.4134C72.4015 17.11 73.0083 16.8933 73.6801 16.7415C74.3628 16.5898 75.1104 16.5248 75.9014 16.5248C76.3782 16.5248 76.92 16.5465 77.5268 16.579C78.112 16.6115 78.6646 16.6874 79.1631 16.7849L79.5857 16.8716V16.4381C79.5857 16.1456 79.6182 15.7121 79.6832 15.1595C79.7482 14.6069 79.8241 14.1626 79.9216 13.8267L80.0299 13.4366L79.629 13.3716C79.1197 13.2957 78.5562 13.2307 77.9711 13.1982C77.386 13.1549 76.8333 13.144 76.324 13.144C75.1538 13.144 73.9727 13.2741 72.8024 13.5124C71.6213 13.7617 70.5377 14.1626 69.5624 14.7152C68.5764 15.2787 67.7637 16.0047 67.146 16.8933C66.5175 17.7926 66.2033 18.8871 66.2033 20.1657C66.2033 21.0001 66.3442 21.7694 66.6151 22.4629C66.886 23.1456 67.2652 23.7741 67.7528 24.3484C68.2296 24.901 68.7823 25.4103 69.3999 25.8762C70.0067 26.3313 70.6677 26.7648 71.3612 27.1765C72.3906 27.7833 73.2575 28.3251 73.9402 28.7911C74.612 29.2462 75.1538 29.7013 75.5439 30.1239C75.934 30.5357 76.2049 30.9366 76.3457 31.3375C76.4974 31.7385 76.5733 32.1936 76.5733 32.692C76.5733 33.5806 76.3891 34.2957 76.0206 34.8267C75.6414 35.3685 75.1646 35.7694 74.5361 36.062C73.8968 36.3654 73.1491 36.5713 72.3039 36.6796C70.9928 36.853 69.6491 36.918 68.0996 36.7772C67.5578 36.723 67.0702 36.6688 66.6151 36.5929L66.2033 36.5279V36.9505C66.2033 37.3623 66.1708 37.8282 66.0949 38.3484L65.8457 40.0604L66.2141 40.0929C66.7234 40.1471 67.2652 40.1905 67.8395 40.2338C68.403 40.2663 68.9556 40.288 69.4758 40.288C70.8411 40.288 72.1847 40.1796 73.4742 39.9737C74.7854 39.7679 75.9773 39.3669 76.9959 38.7818C78.0361 38.1967 78.8922 37.384 79.5315 36.3654C80.1816 35.3468 80.5067 34.014 80.5067 32.4211C80.5067 31.5434 80.3658 30.7415 80.1058 30.0372L80.0841 30.0155Z" fill="#008245"/>
<path d="M133.07 13.2632C132.875 13.2849 132.626 13.3065 132.333 13.3174C131.727 13.339 130.979 13.339 130.372 13.3174C130.079 13.3065 129.83 13.2849 129.635 13.2632L129.213 13.209L129.234 13.6316C129.256 14.2168 129.288 14.9644 129.31 15.8638L129.386 18.7353C129.408 19.7431 129.429 20.7508 129.44 21.7585C129.451 22.7663 129.462 23.6548 129.462 24.4133V29.387C129.462 31.8576 128.822 33.7756 127.566 35.0867C126.319 36.3979 124.412 37.0589 121.888 37.0589C119.363 37.0589 117.477 36.3979 116.253 35.0867C115.018 33.7756 114.4 31.8576 114.4 29.3762V24.4025C114.4 23.6332 114.4 22.7555 114.422 21.7477C114.432 20.74 114.454 19.7322 114.476 18.7245L114.552 15.853C114.573 14.9536 114.606 14.2059 114.627 13.6208L114.649 13.1982L114.227 13.2524C114.031 13.274 113.782 13.2957 113.49 13.3065C112.883 13.3282 112.135 13.3282 111.528 13.3065C111.236 13.2957 110.987 13.274 110.792 13.2524L110.369 13.1982L110.391 13.6208C110.412 14.2059 110.445 14.9536 110.466 15.8746C110.488 16.7957 110.521 17.8034 110.542 18.9195C110.564 20.0248 110.586 21.1842 110.596 22.3979C110.607 23.6115 110.618 24.7818 110.618 25.9304V29.3762C110.618 31.7493 110.997 33.6781 111.745 35.1301C112.493 36.5821 113.446 37.7199 114.573 38.5109C115.689 39.3019 116.925 39.8329 118.247 40.1038C119.536 40.3638 120.761 40.4938 121.877 40.4938C122.624 40.4938 123.426 40.4397 124.271 40.3421C125.127 40.2338 125.983 40.0387 126.818 39.7462C127.663 39.4536 128.476 39.0527 129.234 38.5325C130.004 38.0124 130.697 37.3298 131.304 36.4954C131.9 35.661 132.377 34.6425 132.713 33.483C133.048 32.3127 133.222 30.9366 133.222 29.387V25.9412C133.222 24.7709 133.222 23.5681 133.244 22.3437C133.254 21.1192 133.276 19.9598 133.298 18.8437C133.319 17.7384 133.352 16.7307 133.374 15.8205C133.395 14.9211 133.428 14.1842 133.449 13.6316L133.471 13.209L133.048 13.2632H133.07Z" fill="#008245"/>
<path d="M157.929 35.3251C156.997 34.3173 156.108 33.353 155.263 32.4211L152.901 29.8204C152.348 29.2136 151.861 28.661 151.427 28.1625C152.175 27.9892 152.901 27.7399 153.584 27.4474C154.461 27.0573 155.242 26.548 155.902 25.9304C156.574 25.3019 157.105 24.5434 157.474 23.6873C157.853 22.8313 158.037 21.8235 158.037 20.7074C158.037 19.0929 157.69 17.7601 157.019 16.7523C156.358 15.7663 155.512 14.9969 154.505 14.4551C153.519 13.9242 152.435 13.5774 151.276 13.404C149.13 13.0898 147.32 13.1331 145.771 13.1873C145.045 13.209 144.146 13.2523 143.062 13.3065C142.715 13.3282 142.347 13.3499 141.957 13.3499H140.57L140.678 16.1455C140.721 17.1533 140.743 18.2369 140.754 19.4071L140.786 23.0263C140.797 24.2616 140.808 25.4319 140.808 26.5263V27.4799C140.808 28.6285 140.808 29.7988 140.786 31.0016C140.776 32.2043 140.754 33.3529 140.732 34.4582C140.711 35.5635 140.678 36.5929 140.656 37.5139C140.635 38.4458 140.602 39.2043 140.581 39.7895L140.559 40.2121L140.981 40.1579C141.176 40.1362 141.426 40.1146 141.718 40.1037C142.325 40.0821 143.084 40.0821 143.636 40.1037C143.907 40.1146 144.135 40.1362 144.33 40.1579L144.752 40.2121L144.731 39.7895C144.709 39.2043 144.676 38.4458 144.655 37.5139C144.633 36.5821 144.601 35.5743 144.579 34.469C144.557 33.3746 144.536 32.2152 144.525 31.0124C144.514 29.7988 144.503 28.6177 144.503 27.4799V16.5898C144.893 16.5573 145.305 16.5248 145.749 16.5031C146.313 16.4814 146.746 16.4706 147.05 16.4706C148.046 16.4706 149.011 16.5248 149.899 16.644C150.755 16.7523 151.514 16.969 152.132 17.2941C152.728 17.6084 153.215 18.0526 153.562 18.6378C153.909 19.2121 154.082 19.9923 154.082 20.9458C154.082 21.8019 153.941 22.5279 153.659 23.1022C153.378 23.6765 152.977 24.1533 152.478 24.5217C151.969 24.9009 151.341 25.1827 150.604 25.3669C149.845 25.5511 149 25.6703 148.079 25.7245H147.851L146.844 28.2709L147.006 28.4334C147.646 29.0944 148.382 29.8963 149.238 30.8499C150.094 31.8034 150.983 32.8328 151.915 33.9273C152.858 35.0217 153.8 36.1595 154.776 37.3297C155.751 38.5 156.683 39.6269 157.571 40.6997L157.799 40.9814L158.07 40.743C158.395 40.4613 158.807 40.1362 159.316 39.757C159.814 39.3777 160.248 39.0743 160.594 38.8576L160.952 38.6192L160.659 38.305C159.738 37.3406 158.817 36.3437 157.885 35.3359L157.929 35.3251Z" fill="#008245"/>
<path d="M183.913 39.5728C183.837 39.2152 183.783 38.7818 183.729 38.2833C183.686 37.8066 183.653 37.3406 183.653 36.8855V36.4521L183.231 36.5279C182.548 36.658 181.876 36.7446 181.237 36.8097C180.587 36.8747 179.882 36.9072 179.124 36.9072C177.628 36.9072 176.176 36.7013 174.8 36.3112C173.435 35.9211 172.221 35.2926 171.192 34.4583C170.163 33.6347 169.339 32.562 168.721 31.2725C168.104 29.983 167.8 28.4227 167.8 26.6239C167.8 25.0527 168.082 23.6223 168.635 22.3871C169.187 21.1518 169.978 20.0898 170.986 19.223C172.005 18.3561 173.262 17.6843 174.724 17.2292C176.198 16.774 177.899 16.5357 179.763 16.5357C180.262 16.5357 180.814 16.5573 181.41 16.5898C181.985 16.6223 182.548 16.6982 183.068 16.7957L183.491 16.8716V16.4381C183.491 16.0589 183.512 15.6146 183.545 15.0836C183.577 14.5744 183.653 14.0759 183.751 13.5991L183.837 13.1982L183.437 13.1657C182.797 13.1115 182.136 13.079 181.454 13.0465C180.771 13.0248 180.175 13.0032 179.655 13.0032C177.173 13.0032 174.93 13.3607 172.969 14.0542C171.008 14.7586 169.317 15.723 167.952 16.9366C166.576 18.1502 165.514 19.6131 164.777 21.271C164.051 22.9288 163.672 24.7276 163.672 26.6022C163.672 29.2245 164.149 31.4459 165.091 33.2013C166.034 34.9567 167.248 36.3762 168.721 37.4381C170.184 38.4892 171.799 39.2477 173.533 39.692C175.255 40.1363 176.935 40.353 178.539 40.353C179.525 40.353 180.413 40.3205 181.194 40.2555C181.963 40.1905 182.776 40.0929 183.61 39.9629L183.978 39.9087L183.902 39.5403L183.913 39.5728Z" fill="#008245"/>
<path d="M56.917 8.30031C56.8737 8.22446 52.3118 0.465944 46.0378 0.23839L39.7204 0L39.6663 0.0541796C39.6663 0.0541796 38.6369 0.975232 37.6616 0.975232C36.5997 0.975232 35.8195 0.758514 35.2344 0.303406L35.191 0.270898L31.6043 0.249226L31.561 0.368421C31.5285 0.455108 30.7591 2.48142 31.561 5.35294L31.5935 5.48297H34.7793L34.8226 5.45046C34.8226 5.45046 35.9821 4.63777 37.6616 4.63777C39.3412 4.63777 41.1291 5.95975 41.3783 8.89629V9.05882L46.6554 9.06966L46.6771 8.90712C46.8722 7.03251 47.6307 5.39628 47.7282 5.17957C47.8149 5.09288 48.2266 4.72446 48.9201 4.72446C49.3969 4.72446 49.8954 4.89783 50.4263 5.23375C52.2793 6.41486 56.6136 9.83901 56.657 9.87152L56.9496 10.0991V8.36532L56.9279 8.32198L56.917 8.30031Z" fill="#0071B9"/>
<path d="M46.0703 27.3174L46.5688 10.2508L41.3892 10.24L41.8118 27.3174V36.8097L41.3242 40.0171L42.0069 40.6672L45.8536 40.6781L46.5363 40.0171L46.0595 36.8422L46.0703 27.3174Z" fill="#008245"/>
<g style="mix-blend-mode:multiply">
<mask id="mask0_1409_16141" style="mask-type:luminance" maskUnits="userSpaceOnUse" x="81" y="43" width="29" height="8">
<path d="M109.623 43.8096H81.6445V50.0728H109.623V43.8096Z" fill="white"/>
</mask>
<g mask="url(#mask0_1409_16141)">
<mask id="mask1_1409_16141" style="mask-type:luminance" maskUnits="userSpaceOnUse" x="81" y="43" width="29" height="8">
<path d="M81.6445 46.9412C81.6445 48.6749 87.9076 50.0728 95.6336 50.0728C103.36 50.0728 109.623 48.6749 109.623 46.9412C109.623 45.2075 103.36 43.8096 95.6336 43.8096C87.9076 43.8096 81.6445 45.2075 81.6445 46.9412Z" fill="white"/>
</mask>
<g mask="url(#mask1_1409_16141)">
<path d="M109.623 43.8096H81.6445V50.0728H109.623V43.8096Z" fill="url(#paint0_radial_1409_16141)"/>
</g>
</g>
</g>
<path d="M95.3954 40.4611C89.869 40.4611 85.3613 36.0942 85.3613 30.7304C85.3613 28.444 86.3149 26.6344 87.2034 25.1283C88.0919 23.7521 88.7963 22.7227 89.4031 21.8233C91.2019 19.1685 92.1121 17.8248 94.03 13.4796L95.4062 10.3481L96.9341 13.4038C99.1771 17.8899 100.283 19.6995 101.691 21.975C102.255 22.8961 102.862 23.8821 103.599 25.1391L103.653 25.2474C104.52 26.8728 105.419 28.5632 105.419 30.7304C105.419 36.0942 100.922 40.4611 95.3845 40.4611H95.3954ZM95.5687 17.8032C94.3551 20.2629 93.4341 21.6066 92.0579 23.6437C91.4619 24.5214 90.7793 25.5292 89.9341 26.8295C89.0889 28.2707 88.5796 29.3976 88.5796 30.7413C88.5796 34.3279 91.6353 37.2536 95.3954 37.2536C99.1554 37.2536 102.212 34.3279 102.212 30.7413C102.212 29.3759 101.561 28.1731 100.825 26.7753C100.109 25.5509 99.513 24.5865 98.9604 23.6762C97.9093 21.975 96.9666 20.4363 95.5796 17.8032H95.5687Z" fill="#0071B9"/>
<path d="M56.84 16.5247L58.292 16.5681C58.7255 16.5789 59.0506 16.6006 59.2781 16.6222L59.7332 16.6656L59.679 16.2213C59.6574 16.0263 59.6357 15.8204 59.6249 15.5928C59.614 15.3653 59.6032 15.1377 59.6032 14.8885C59.6032 14.6393 59.6032 14.4009 59.6249 14.1625C59.6357 13.9241 59.6574 13.6965 59.679 13.4798L59.7332 13.0356L59.289 13.0897C59.0614 13.1114 58.7363 13.1331 58.3029 13.1439C57.8586 13.1547 57.371 13.1656 56.8509 13.1873C56.3307 13.1981 55.8106 13.2089 55.2905 13.2089H48.789C48.4855 13.2089 48.2255 13.2089 47.9221 13.2089H47.5645V16.5464L55.3013 16.5247C55.8215 16.5247 56.3416 16.5247 56.8617 16.5464L56.84 16.5247Z" fill="#008245"/>
<path d="M55.6916 27.5883L57.1436 27.6316C57.5771 27.6425 57.9021 27.6641 58.1297 27.6858L58.5848 27.74L58.5306 27.2849C58.5089 27.0898 58.4873 26.884 58.4764 26.6781C58.4656 26.4722 58.4548 26.2338 58.4548 25.9846C58.4548 25.7353 58.4548 25.497 58.4764 25.2802C58.4873 25.0527 58.5089 24.836 58.5306 24.6084L58.574 24.1641L58.1297 24.2075C57.9021 24.2292 57.5771 24.2508 57.1436 24.2617L55.6916 24.305C55.1715 24.3158 54.6514 24.3267 54.1312 24.3267H47.543V27.5666H54.1312C54.6514 27.5666 55.1715 27.5666 55.6916 27.5883Z" fill="#008245"/>
<path d="M60.0593 39.6377C60.0376 39.4426 60.016 39.2367 60.0051 39.0092C59.9943 38.7816 59.9835 38.5541 59.9835 38.3048C59.9835 38.0556 59.9835 37.7956 60.0051 37.5355C60.016 37.2754 60.0376 37.037 60.0593 36.8095L60.1135 36.3652L59.6692 36.4086C59.4417 36.4302 59.1166 36.4519 58.6832 36.4627C58.2389 36.4736 57.7513 36.4844 57.2311 36.4952C56.711 36.5061 56.1909 36.5169 55.6708 36.5169L47.5547 36.5386V39.9194H47.9123C48.2048 39.9194 48.4866 39.9194 48.7791 39.9194H55.6708C56.1909 39.9194 56.711 39.9194 57.2311 39.9411L58.6832 39.9736C59.1166 39.9844 59.4417 40.0061 59.6692 40.0278L60.1243 40.0819L60.0702 39.6268L60.0593 39.6377Z" fill="#008245"/>
<path d="M184.629 26.9706L201.543 21.856L199.257 25.1502L206.192 23.4056L203.927 25.9087L211.794 25.5511L199.994 29.1161L201.608 26.8189L194.034 28.7585L196.483 26.0279L184.629 26.9706Z" fill="#0071B9"/>
<path d="M189.124 19.212L189.179 24.3266L192.884 23.1888V20.0464C192.884 18.7786 192.906 17.6083 192.949 16.5572H199.863C200.383 16.5572 200.903 16.5572 201.423 16.5789L202.875 16.6114C203.309 16.6223 203.645 16.6439 203.861 16.6656L204.306 16.7089L204.251 16.2647C204.23 16.0696 204.208 15.8637 204.197 15.6362C204.186 15.4086 204.176 15.1811 204.176 14.9319C204.176 14.6826 204.175 14.4442 204.197 14.2058C204.208 13.9675 204.23 13.7399 204.251 13.5232L204.306 13.0789L203.861 13.1331C203.634 13.1548 203.309 13.1764 202.875 13.1873L201.423 13.2198C200.903 13.2306 200.383 13.2415 199.863 13.2415H193.361C192.841 13.2415 192.321 13.2415 191.801 13.2198L190.349 13.1873C189.915 13.1764 189.59 13.1548 189.363 13.1331L188.951 13.0898L189.059 15.9396C189.103 16.9473 189.124 18.0418 189.135 19.2229L189.124 19.212Z" fill="#008245"/>
<path d="M204.631 39.7029C204.609 39.5078 204.587 39.3019 204.576 39.0744C204.576 38.8468 204.555 38.6193 204.555 38.37C204.555 38.1208 204.555 37.8607 204.576 37.6007C204.587 37.3406 204.609 37.1022 204.631 36.8747L204.674 36.4304L204.23 36.4846C204.002 36.5063 203.677 36.5279 203.244 36.5388C202.799 36.5496 202.312 36.5604 201.792 36.5821C201.271 36.5929 200.751 36.6038 200.231 36.6038H192.982C192.96 36.062 192.949 35.4877 192.939 34.87L192.906 32.6162C192.895 31.8685 192.884 31.1316 192.884 30.4056V27.5991L189.179 27.8592V28.1951C189.179 29.0512 189.179 29.3654 189.179 30.1998L189.135 34.0357C189.124 35.2168 189.092 36.3112 189.059 37.319L188.951 40.158L189.363 40.1146C189.59 40.0929 189.915 40.0713 190.349 40.0604L191.801 40.0279C192.321 40.0171 192.841 40.0063 193.361 40.0063H200.253C200.773 40.0063 201.293 40.0063 201.813 40.0279L203.265 40.0604C203.699 40.0713 204.024 40.0929 204.251 40.1146L204.696 40.158L204.641 39.7137L204.631 39.7029Z" fill="#008245"/>
<rect x="33" y="86" width="155" height="20" rx="10" fill="#7D4A9D"/>
<path d="M53 99.858V92.142H55.8281C56.3816 92.142 56.8871 92.2169 57.3444 92.3669C57.8017 92.5089 58.1667 92.7574 58.4395 93.1124C58.7123 93.4596 58.8487 93.9369 58.8487 94.5444C58.8487 95.1361 58.7123 95.6173 58.4395 95.9882C58.1667 96.359 57.8017 96.6351 57.3444 96.8166C56.8871 96.9901 56.3816 97.0769 55.8281 97.0769H54.7691V99.858H53ZM54.7691 95.6923H55.6837C56.149 95.6923 56.502 95.5976 56.7427 95.4083C56.9914 95.211 57.1157 94.9231 57.1157 94.5444C57.1157 94.1657 56.9914 93.9014 56.7427 93.7515C56.502 93.6016 56.149 93.5266 55.6837 93.5266H54.7691V95.6923ZM57.2481 99.858L55.5031 96.6272L56.7306 95.5029L59.2337 99.858H57.2481Z" fill="white"/>
<path d="M60.3809 99.858V92.142H65.2908V93.6095H62.1499V95.1597H64.8215V96.6154H62.1499V98.3905H65.4112V99.858H60.3809Z" fill="white"/>
<path d="M66.9727 99.858V92.142H68.826L70.8357 95.9408C70.9801 96.2012 71.1125 96.4812 71.2328 96.7811C71.3612 97.073 71.4856 97.3728 71.6059 97.6805H71.654C71.6139 97.2623 71.5658 96.8047 71.5096 96.3077C71.4535 95.8106 71.4254 95.3333 71.4254 94.8757V92.142H73.1222V99.858H71.2689L69.2592 96.0592C69.1229 95.7988 68.9865 95.5187 68.8501 95.2189C68.7217 94.9191 68.5974 94.6193 68.477 94.3195H68.4289C68.477 94.7455 68.5292 95.2071 68.5853 95.7041C68.6415 96.1933 68.6696 96.6667 68.6696 97.1242V99.858H66.9727Z" fill="white"/>
<path d="M74.9766 99.858V92.142H79.8865V93.6095H76.7456V95.1597H79.4172V96.6154H76.7456V98.3905H80.0069V99.858H74.9766Z" fill="white"/>
<path d="M82.2305 99.858L80.8105 92.142H82.6517L83.1692 95.7396C83.2253 96.1499 83.2775 96.5601 83.3256 96.9704C83.3818 97.3728 83.4299 97.787 83.47 98.213H83.5182C83.5904 97.787 83.6626 97.3688 83.7348 96.9586C83.815 96.5483 83.8952 96.142 83.9755 95.7396L84.8058 92.142H86.3823L87.1765 95.7396C87.2568 96.1341 87.337 96.5404 87.4172 96.9586C87.4975 97.3688 87.5738 97.787 87.646 98.213H87.694C87.7341 97.787 87.7784 97.3688 87.8265 96.9586C87.8827 96.5483 87.9347 96.142 87.9828 95.7396L88.5364 92.142H90.2694L88.8613 99.858H86.5748L85.8408 96.355C85.7846 96.0631 85.7324 95.7633 85.6843 95.4556C85.6362 95.1479 85.592 94.8402 85.5519 94.5325H85.5038C85.4637 94.8402 85.4196 95.1479 85.3714 95.4556C85.3313 95.7633 85.2792 96.0631 85.215 96.355L84.4809 99.858H82.2305Z" fill="white"/>
<path d="M96.9566 100C96.2506 100 95.6288 99.8383 95.0913 99.5148C94.5618 99.1913 94.1446 98.7298 93.8398 98.1302C93.5429 97.5306 93.3945 96.8087 93.3945 95.9645C93.3945 95.1282 93.5429 94.4142 93.8398 93.8225C94.1446 93.2308 94.5618 92.7811 95.0913 92.4734C95.6288 92.1578 96.2506 92 96.9566 92C97.6626 92 98.2844 92.1578 98.8219 92.4734C99.3594 92.7811 99.7766 93.2308 100.074 93.8225C100.37 94.4142 100.519 95.1282 100.519 95.9645C100.519 96.8087 100.37 97.5306 100.074 98.1302C99.7766 98.7298 99.3594 99.1913 98.8219 99.5148C98.2844 99.8383 97.6626 100 96.9566 100ZM96.9566 98.497C97.3176 98.497 97.6265 98.3945 97.8832 98.1893C98.148 97.9763 98.3486 97.6805 98.485 97.3018C98.6294 96.9231 98.7016 96.4773 98.7016 95.9645C98.7016 95.4517 98.6294 95.0138 98.485 94.6509C98.3486 94.2801 98.148 94 97.8832 93.8106C97.6265 93.6134 97.3176 93.5148 96.9566 93.5148C96.6036 93.5148 96.2947 93.6134 96.03 93.8106C95.7652 94 95.5606 94.2801 95.4162 94.6509C95.2798 95.0138 95.2116 95.4517 95.2116 95.9645C95.2116 96.4773 95.2798 96.9231 95.4162 97.3018C95.5606 97.6805 95.7652 97.9763 96.03 98.1893C96.2947 98.3945 96.6036 98.497 96.9566 98.497Z" fill="white"/>
<path d="M105.088 100C104.575 100 104.121 99.9329 103.728 99.7988C103.343 99.6568 103.018 99.4398 102.754 99.1479C102.489 98.8481 102.288 98.4694 102.152 98.0118C102.015 97.5542 101.947 97.0098 101.947 96.3787V92.142H103.728V96.5562C103.728 97.0375 103.78 97.4201 103.885 97.7041C103.989 97.9803 104.142 98.1814 104.342 98.3077C104.543 98.4339 104.791 98.497 105.088 98.497C105.377 98.497 105.626 98.4339 105.834 98.3077C106.043 98.1814 106.199 97.9803 106.304 97.7041C106.416 97.4201 106.472 97.0375 106.472 96.5562V92.142H108.181V96.3787C108.181 97.0098 108.113 97.5542 107.976 98.0118C107.848 98.4694 107.651 98.8481 107.387 99.1479C107.13 99.4398 106.809 99.6568 106.424 99.7988C106.039 99.9329 105.594 100 105.088 100Z" fill="white"/>
<path d="M109.998 99.858V92.142H112.826C113.38 92.142 113.885 92.2169 114.342 92.3669C114.8 92.5089 115.165 92.7574 115.437 93.1124C115.71 93.4596 115.847 93.9369 115.847 94.5444C115.847 95.1361 115.71 95.6173 115.437 95.9882C115.165 96.359 114.8 96.6351 114.342 96.8166C113.885 96.9901 113.38 97.0769 112.826 97.0769H111.767V99.858H109.998ZM111.767 95.6923H112.682C113.147 95.6923 113.5 95.5976 113.741 95.4083C113.989 95.211 114.114 94.9231 114.114 94.5444C114.114 94.1657 113.989 93.9014 113.741 93.7515C113.5 93.6016 113.147 93.5266 112.682 93.5266H111.767V95.6923ZM114.246 99.858L112.501 96.6272L113.729 95.5029L116.232 99.858H114.246Z" fill="white"/>
<path d="M122.181 100C121.66 100 121.147 99.9093 120.641 99.7278C120.136 99.5384 119.682 99.2544 119.281 98.8757L120.22 97.7396C120.501 97.9763 120.818 98.1617 121.171 98.2958C121.532 98.43 121.885 98.497 122.23 98.497C122.599 98.497 122.871 98.43 123.048 98.2958C123.232 98.1617 123.325 97.9803 123.325 97.7515C123.325 97.5858 123.277 97.4556 123.18 97.3609C123.092 97.2584 122.964 97.1676 122.795 97.0887C122.627 97.0098 122.426 96.9231 122.194 96.8284L121.171 96.4142C120.906 96.2958 120.649 96.1459 120.4 95.9645C120.16 95.7751 119.963 95.5463 119.811 95.2781C119.666 95.002 119.594 94.6745 119.594 94.2958C119.594 93.8698 119.71 93.4872 119.943 93.1479C120.184 92.8008 120.513 92.5246 120.93 92.3195C121.355 92.1065 121.841 92 122.386 92C122.859 92 123.317 92.0828 123.758 92.2485C124.199 92.4142 124.584 92.6548 124.913 92.9704L123.975 94.0947C123.718 93.9053 123.453 93.7594 123.18 93.6568C122.916 93.5542 122.651 93.5029 122.386 93.5029C122.081 93.5029 121.836 93.5661 121.652 93.6923C121.475 93.8106 121.387 93.9803 121.387 94.2012C121.387 94.3511 121.439 94.4812 121.544 94.5917C121.648 94.6943 121.792 94.785 121.977 94.8639C122.161 94.9349 122.362 95.0177 122.579 95.1124L123.589 95.5148C123.91 95.641 124.183 95.7988 124.408 95.9882C124.64 96.1775 124.821 96.4063 124.949 96.6745C125.077 96.9349 125.142 97.2465 125.142 97.6095C125.142 98.0355 125.025 98.43 124.793 98.7929C124.56 99.1558 124.223 99.4477 123.782 99.6686C123.341 99.8895 122.807 100 122.181 100Z" fill="white"/>
<path d="M129.797 100C129.123 100 128.505 99.854 127.944 99.5621C127.39 99.2623 126.945 98.8166 126.608 98.2248C126.271 97.6331 126.102 96.9073 126.102 96.0473C126.102 95.4083 126.199 94.8402 126.391 94.3432C126.592 93.8383 126.864 93.4122 127.209 93.0651C127.554 92.7179 127.948 92.4536 128.389 92.2722C128.838 92.0907 129.311 92 129.809 92C130.314 92 130.768 92.0986 131.169 92.2958C131.57 92.4931 131.903 92.7298 132.168 93.0059L131.229 94.0592C131.036 93.8777 130.828 93.7436 130.603 93.6568C130.378 93.5621 130.126 93.5148 129.845 93.5148C129.5 93.5148 129.179 93.6173 128.882 93.8225C128.593 94.0197 128.361 94.3037 128.184 94.6745C128.008 95.0454 127.919 95.4832 127.919 95.9882C127.919 96.5168 128.004 96.9704 128.172 97.3491C128.341 97.7199 128.573 98.0039 128.87 98.2012C129.175 98.3984 129.524 98.497 129.917 98.497C130.222 98.497 130.495 98.4339 130.736 98.3077C130.976 98.1814 131.189 98.0315 131.373 97.858L132.264 98.8876C131.927 99.2584 131.554 99.5384 131.145 99.7278C130.735 99.9093 130.286 100 129.797 100Z" fill="white"/>
<path d="M133.479 99.858V92.142H135.248V95.1124H137.955V92.142H139.736V99.858H137.955V96.639H135.248V99.858H133.479Z" fill="white"/>
<path d="M144.777 100C144.071 100 143.449 99.8383 142.911 99.5148C142.382 99.1913 141.965 98.7298 141.66 98.1302C141.363 97.5306 141.215 96.8087 141.215 95.9645C141.215 95.1282 141.363 94.4142 141.66 93.8225C141.965 93.2308 142.382 92.7811 142.911 92.4734C143.449 92.1578 144.071 92 144.777 92C145.483 92 146.104 92.1578 146.642 92.4734C147.18 92.7811 147.597 93.2308 147.894 93.8225C148.19 94.4142 148.339 95.1282 148.339 95.9645C148.339 96.8087 148.19 97.5306 147.894 98.1302C147.597 98.7298 147.18 99.1913 146.642 99.5148C146.104 99.8383 145.483 100 144.777 100ZM144.777 98.497C145.138 98.497 145.447 98.3945 145.703 98.1893C145.968 97.9763 146.169 97.6805 146.305 97.3018C146.449 96.9231 146.522 96.4773 146.522 95.9645C146.522 95.4517 146.449 95.0138 146.305 94.6509C146.169 94.2801 145.968 94 145.703 93.8106C145.447 93.6134 145.138 93.5148 144.777 93.5148C144.424 93.5148 144.115 93.6134 143.85 93.8106C143.585 94 143.381 94.2801 143.236 94.6509C143.1 95.0138 143.032 95.4517 143.032 95.9645C143.032 96.4773 143.1 96.9231 143.236 97.3018C143.381 97.6805 143.585 97.9763 143.85 98.1893C144.115 98.3945 144.424 98.497 144.777 98.497Z" fill="white"/>
<path d="M153.003 100C152.297 100 151.675 99.8383 151.138 99.5148C150.608 99.1913 150.191 98.7298 149.886 98.1302C149.59 97.5306 149.441 96.8087 149.441 95.9645C149.441 95.1282 149.59 94.4142 149.886 93.8225C150.191 93.2308 150.608 92.7811 151.138 92.4734C151.675 92.1578 152.297 92 153.003 92C153.709 92 154.331 92.1578 154.869 92.4734C155.406 92.7811 155.823 93.2308 156.12 93.8225C156.417 94.4142 156.565 95.1282 156.565 95.9645C156.565 96.8087 156.417 97.5306 156.12 98.1302C155.823 98.7298 155.406 99.1913 154.869 99.5148C154.331 99.8383 153.709 100 153.003 100ZM153.003 98.497C153.364 98.497 153.673 98.3945 153.93 98.1893C154.195 97.9763 154.395 97.6805 154.532 97.3018C154.676 96.9231 154.748 96.4773 154.748 95.9645C154.748 95.4517 154.676 95.0138 154.532 94.6509C154.395 94.2801 154.195 94 153.93 93.8106C153.673 93.6134 153.364 93.5148 153.003 93.5148C152.65 93.5148 152.341 93.6134 152.077 93.8106C151.812 94 151.607 94.2801 151.463 94.6509C151.326 95.0138 151.258 95.4517 151.258 95.9645C151.258 96.4773 151.326 96.9231 151.463 97.3018C151.607 97.6805 151.812 97.9763 152.077 98.1893C152.341 98.3945 152.65 98.497 153.003 98.497Z" fill="white"/>
<path d="M158.041 99.858V92.142H159.81V98.3905H162.915V99.858H158.041Z" fill="white"/>
<path d="M166.336 100C165.815 100 165.301 99.9093 164.796 99.7278C164.29 99.5384 163.837 99.2544 163.436 98.8757L164.374 97.7396C164.655 97.9763 164.972 98.1617 165.325 98.2958C165.686 98.43 166.039 98.497 166.384 98.497C166.753 98.497 167.026 98.43 167.203 98.2958C167.387 98.1617 167.479 97.9803 167.479 97.7515C167.479 97.5858 167.431 97.4556 167.335 97.3609C167.247 97.2584 167.118 97.1676 166.95 97.0887C166.781 97.0098 166.581 96.9231 166.348 96.8284L165.325 96.4142C165.06 96.2958 164.804 96.1459 164.555 95.9645C164.314 95.7751 164.118 95.5463 163.965 95.2781C163.821 95.002 163.749 94.6745 163.749 94.2958C163.749 93.8698 163.865 93.4872 164.098 93.1479C164.338 92.8008 164.667 92.5246 165.084 92.3195C165.51 92.1065 165.995 92 166.541 92C167.014 92 167.471 92.0828 167.913 92.2485C168.354 92.4142 168.739 92.6548 169.068 92.9704L168.129 94.0947C167.872 93.9053 167.608 93.7594 167.335 93.6568C167.07 93.5542 166.805 93.5029 166.541 93.5029C166.236 93.5029 165.991 93.5661 165.807 93.6923C165.63 93.8106 165.542 93.9803 165.542 94.2012C165.542 94.3511 165.594 94.4812 165.698 94.5917C165.803 94.6943 165.947 94.785 166.131 94.8639C166.316 94.9349 166.517 95.0177 166.733 95.1124L167.744 95.5148C168.065 95.641 168.338 95.7988 168.562 95.9882C168.795 96.1775 168.976 96.4063 169.104 96.6745C169.232 96.9349 169.296 97.2465 169.296 97.6095C169.296 98.0355 169.18 98.43 168.947 98.7929C168.715 99.1558 168.378 99.4477 167.937 99.6686C167.495 99.8895 166.962 100 166.336 100Z" fill="white"/>
<defs>
<radialGradient id="paint0_radial_1409_16141" cx="0" cy="0" r="1" gradientUnits="userSpaceOnUse" gradientTransform="translate(94.682 47.6675) scale(13.9892 3.13158)">
<stop stop-color="#0071B9"/>
<stop offset="0.21" stop-color="#4798CC"/>
<stop offset="0.42" stop-color="#88BCDE"/>
<stop offset="0.61" stop-color="#BBD9EC"/>
<stop offset="0.78" stop-color="#E0EDF6"/>
<stop offset="0.91" stop-color="#F6FAFC"/>
<stop offset="1" stop-color="white"/>
</radialGradient>
</defs>
</svg>
