<?xml version="1.0" encoding="utf-8"?>
<!-- Generator: Adobe Illustrator 24.0.0, SVG Export Plug-In . SVG Version: 6.00 Build 0)  -->
<svg version="1.1" id="Layer_1" xmlns="http://www.w3.org/2000/svg" xmlns:xlink="http://www.w3.org/1999/xlink" x="0px" y="0px"
	 viewBox="0 0 79.5 102" style="enable-background:new 0 0 79.5 102;" xml:space="preserve">
<style type="text/css">
	.st0{fill:#FFFFFF;}
</style>
<g id="mark_lined_1_">
	<g>
		<path class="st0" d="M55.1,18c0,0,0-0.1,0-0.1c0,0,0,0,0,0c0,0,0,0,0,0c0,0,0,0,0,0c0,0,0,0,0,0c0,0,0-0.1-0.1-0.1
			c0,0,0-0.1-0.1-0.1c0,0,0,0-0.1,0c0,0,0,0-0.1-0.1c0,0-0.1-0.1-0.1-0.1c0,0,0,0,0,0c0,0,0,0,0,0c0,0,0,0,0,0c0,0,0,0,0,0
			c0,0-0.1,0-0.1,0c0,0-0.1,0-0.1,0c0,0,0,0,0,0H41.1c-0.5,0-0.9,0.4-0.9,0.9v6.6V51c0,0.5,0.4,0.9,0.9,0.9h6.6h6.6
			c0.5,0,0.9-0.4,0.9-0.9V18.1c0,0,0,0,0,0C55.1,18,55.1,18,55.1,18z M46.7,50.1H42V25.6h4.7V50.1z M47.2,23.8H42v-4.7h10l-4,4
			L47.2,23.8z M53.3,50.1h-4.7v-25l0.7-0.7l4-4V50.1z"/>
		<path class="st0" d="M75.4,15h-7.1v-3.4c0-0.2-0.1-0.5-0.3-0.7l-6.6-6.6c-0.2-0.2-0.4-0.3-0.7-0.3H27.9c0,0,0,0,0,0
			c-0.1,0-0.2,0-0.3,0.1c0,0,0,0,0,0c-0.1,0-0.2,0.1-0.3,0.2l-6.6,6.6c-0.2,0.2-0.3,0.4-0.3,0.6V15H10c0,0,0,0-0.1,0
			c-0.1,0-0.2,0-0.2,0c0,0-0.1,0-0.1,0c-0.1,0-0.2,0.1-0.3,0.2c0,0,0,0,0,0l-5.9,5.9c-0.2,0.2-0.3,0.4-0.3,0.7v65.3c0,0,0,0,0,0
			c0,0,0,0.1,0,0.1c0,0,0,0.1,0,0.1c0,0,0,0,0,0c0,0,0,0,0,0.1c0,0,0,0.1,0.1,0.1c0,0,0.1,0.1,0.1,0.1c0,0,0.1,0.1,0.1,0.1
			c0,0,0.1,0,0.1,0.1c0,0,0,0,0.1,0c0,0,0,0,0,0c0.1,0,0.2,0.1,0.3,0.1h16.3V97c0,0,0,0,0,0c0,0,0,0.1,0,0.1c0,0,0,0.1,0,0.1
			c0,0,0,0,0,0c0,0,0,0.1,0,0.1c0,0,0,0.1,0.1,0.1c0,0,0.1,0.1,0.1,0.1c0,0,0.1,0.1,0.1,0.1c0,0,0.1,0.1,0.1,0.1c0,0,0,0,0.1,0
			c0,0,0,0,0,0c0.1,0,0.2,0.1,0.3,0.1h13.1c0.2,0,0.5-0.1,0.7-0.3l6.6-6.6c0,0,0,0,0,0c0.1-0.1,0.1-0.2,0.2-0.3c0,0,0-0.1,0-0.1
			c0-0.1,0-0.2,0-0.2c0,0,0,0,0-0.1v-2.3h27.5c0.2,0,0.5-0.1,0.7-0.3l5.9-5.9c0,0,0,0,0,0c0.1-0.1,0.1-0.2,0.2-0.3c0,0,0-0.1,0-0.1
			c0-0.1,0-0.2,0-0.2c0,0,0,0,0-0.1V15.9C76.3,15.4,75.9,15,75.4,15z M5,22.3l4.1-4.1v62.7L5,85V22.3z M20.4,86.3H6.3l4.1-4.1h10
			V86.3z M20.4,80.4H11V16.9h9.5V80.4z M22.3,11.9L27,7.2v82.8l-4.7,4.7V11.9z M34.1,96.1H23.6l4.7-4.7h10.5L34.1,96.1z M41.1,63.2
			c-0.5,0-0.9,0.4-0.9,0.9v6.6v18.8H28.8V5.9h31.6l6,6v45.2l-6,6H41.1z M58.5,65.1l-4.7,4.7H42v-4.7H58.5z M69.1,86.3H42v-4.1h31.2
			L69.1,86.3z M74.5,80.4H42v-8.7h12.2c0.2,0,0.5-0.1,0.7-0.3l6.6-6.6l6.6-6.6c0.2-0.2,0.3-0.4,0.3-0.7V16.9h6.2V80.4z"/>
	</g>
</g>
</svg>
